<svg width="17" height="17" viewBox="0 0 17 17" fill="none" xmlns="http://www.w3.org/2000/svg">
<path d="M8.5 7.08334C9.27917 7.08334 9.91667 7.72084 9.91667 8.5C9.91667 9.27917 9.27917 9.91667 8.5 9.91667C7.72084 9.91667 7.08334 9.27917 7.08334 8.5C7.08334 7.72084 7.72084 7.08334 8.5 7.08334ZM8.5 5.66667C6.94167 5.66667 5.66667 6.94167 5.66667 8.5C5.66667 10.0583 6.94167 11.3333 8.5 11.3333C10.0583 11.3333 11.3333 10.0583 11.3333 8.5C11.3333 6.94167 10.0583 5.66667 8.5 5.66667ZM10.625 12.0417H6.375V13.4583H10.625V12.0417ZM10.625 14.1667H6.375V15.5833H10.625V14.1667ZM4.4625 7.50834L7.4375 4.53334L6.51667 3.47084L3.47084 6.51667L4.4625 7.50834ZM2.975 6.02084L5.95 3.04584L5.02917 1.98334L1.98334 5.02917L2.975 6.02084ZM10.625 12.0417H6.375V13.4583H10.625V12.0417ZM9.49167 4.4625L12.4667 7.4375L14.9458 4.95834L11.9708 1.98334L9.49167 4.4625Z" fill="white"/>
</svg>
