<svg width="10" height="9" viewBox="0 0 10 9" fill="none" xmlns="http://www.w3.org/2000/svg">
<path d="M3.34387 8.85319C3.15255 8.92609 2.96856 8.92296 2.7919 8.84379C2.61524 8.76461 2.49026 8.62928 2.41697 8.43779L0.712827 3.9657C0.639922 3.77438 0.643193 3.59034 0.722642 3.41357C0.802091 3.23681 0.937146 3.11194 1.12781 3.03897L2.62958 2.4667C2.68855 2.44423 2.74552 2.44519 2.80048 2.46959C2.85543 2.49399 2.89406 2.53587 2.91636 2.59522C2.93867 2.65458 2.9377 2.71155 2.91347 2.76612C2.88925 2.8207 2.84723 2.85938 2.78742 2.88217L1.28648 3.45412C1.22253 3.47849 1.17396 3.52744 1.14078 3.60096C1.1076 3.67449 1.10338 3.74331 1.12814 3.80744L2.83244 8.27994C2.85671 8.34363 2.90561 8.39206 2.97913 8.42524C3.05265 8.45842 3.12134 8.46268 3.18519 8.43803L9.31936 6.10053C9.38304 6.07626 9.43147 6.02737 9.46465 5.95384C9.49783 5.88032 9.5021 5.81163 9.47745 5.74778L7.77298 1.27486C7.74872 1.21118 7.69982 1.16275 7.6263 1.12957C7.55278 1.09639 7.48409 1.09213 7.42024 1.11678L5.91846 1.68905C5.85949 1.71152 5.80252 1.71055 5.74757 1.68615C5.69261 1.66175 5.65412 1.61982 5.63209 1.56036C5.61007 1.5009 5.61103 1.44393 5.63498 1.38946C5.65894 1.33499 5.70081 1.29636 5.76062 1.27357L7.26239 0.701305C7.45343 0.628505 7.63734 0.63183 7.8141 0.711279C7.99087 0.790728 8.11565 0.925974 8.18845 1.11702L9.89276 5.58952C9.96556 5.78056 9.96229 5.96461 9.88294 6.14165C9.8036 6.31869 9.66849 6.44342 9.47762 6.51584L3.34387 8.85319ZM5.25094 5.26562L4.06637 2.157C4.04389 2.09803 4.04486 2.04106 4.06926 1.9861C4.09366 1.93115 4.13553 1.89252 4.19489 1.87022C4.25425 1.84791 4.31121 1.84888 4.36579 1.87311C4.42036 1.89734 4.45899 1.93921 4.48168 1.99874L5.66626 5.10736L6.37212 3.53232C6.39601 3.47851 6.43572 3.4396 6.49125 3.41559C6.54678 3.39157 6.60509 3.39313 6.66616 3.42028C6.72724 3.44742 6.76801 3.48785 6.78848 3.54156C6.80895 3.59527 6.80547 3.65272 6.77805 3.7139L5.9069 5.65774C5.86543 5.75028 5.79998 5.81358 5.71055 5.84766C5.62112 5.88174 5.53014 5.87805 5.4376 5.83658L3.49376 4.96543C3.44023 4.94143 3.40131 4.90172 3.37702 4.8463C3.35273 4.79087 3.35435 4.7327 3.38187 4.6718C3.4094 4.6109 3.44996 4.57007 3.50357 4.54933C3.55718 4.52858 3.61463 4.53206 3.67591 4.55975L5.25094 5.26562Z" fill="black"/>
</svg>
