<svg width="143" height="70" viewBox="0 0 143 70" fill="none" xmlns="http://www.w3.org/2000/svg">
<g clip-path="url(#clip0_1_200)">
<rect x="6.65247" y="0.825043" width="137" height="54" rx="20" transform="rotate(6.26218 6.65247 0.825043)" fill="white"/>
<g filter="url(#filter0_f_1_200)">
<ellipse cx="47.773" cy="70.7275" rx="73.5" ry="79" transform="rotate(6.26218 47.773 70.7275)" fill="#A25AFF"/>
</g>
<g filter="url(#filter1_f_1_200)">
<ellipse cx="184.738" cy="87.6156" rx="73.5" ry="79" transform="rotate(-175.198 184.738 87.6156)" fill="#3B63E6"/>
</g>
<rect x="-0.923218" y="33.1918" width="157" height="5" transform="rotate(6.26218 -0.923218 33.1918)" fill="url(#paint0_linear_1_200)" fill-opacity="0.5"/>
<rect x="45.6996" y="48.3679" width="157" height="5" transform="rotate(6.26218 45.6996 48.3679)" fill="url(#paint1_linear_1_200)" fill-opacity="0.5"/>
<rect x="-12.1602" y="53.0848" width="157" height="5" transform="rotate(6.26218 -12.1602 53.0848)" fill="url(#paint2_linear_1_200)" fill-opacity="0.5"/>
<rect x="39.6509" y="66.8182" width="157" height="5" transform="rotate(6.26218 39.6509 66.8182)" fill="url(#paint3_linear_1_200)" fill-opacity="0.5"/>
</g>
<defs>
<filter id="filter0_f_1_200" x="-225.802" y="-208.215" width="547.15" height="557.886" filterUnits="userSpaceOnUse" color-interpolation-filters="sRGB">
<feFlood flood-opacity="0" result="BackgroundImageFix"/>
<feBlend mode="normal" in="SourceGraphic" in2="BackgroundImageFix" result="shape"/>
<feGaussianBlur stdDeviation="100" result="effect1_foregroundBlur_1_200"/>
</filter>
<filter id="filter1_f_1_200" x="-88.8071" y="-191.351" width="547.089" height="557.933" filterUnits="userSpaceOnUse" color-interpolation-filters="sRGB">
<feFlood flood-opacity="0" result="BackgroundImageFix"/>
<feBlend mode="normal" in="SourceGraphic" in2="BackgroundImageFix" result="shape"/>
<feGaussianBlur stdDeviation="100" result="effect1_foregroundBlur_1_200"/>
</filter>
<linearGradient id="paint0_linear_1_200" x1="-0.923218" y1="35.6918" x2="156.077" y2="35.6918" gradientUnits="userSpaceOnUse">
<stop offset="0.115385" stop-color="#D9C7FE"/>
<stop offset="0.625" stop-color="#D6D6D6"/>
<stop offset="0.913462" stop-color="#BFC6F8"/>
</linearGradient>
<linearGradient id="paint1_linear_1_200" x1="45.6996" y1="50.8679" x2="202.7" y2="50.8679" gradientUnits="userSpaceOnUse">
<stop offset="0.115385" stop-color="#D9C7FE"/>
<stop offset="0.625" stop-color="#D6D6D6"/>
<stop offset="0.913462" stop-color="#BFC6F8"/>
</linearGradient>
<linearGradient id="paint2_linear_1_200" x1="-12.1602" y1="55.5848" x2="144.84" y2="55.5848" gradientUnits="userSpaceOnUse">
<stop offset="0.115385" stop-color="#D9C7FE"/>
<stop offset="0.625" stop-color="#D6D6D6"/>
<stop offset="0.913462" stop-color="#BFC6F8"/>
</linearGradient>
<linearGradient id="paint3_linear_1_200" x1="39.6509" y1="69.3182" x2="196.651" y2="69.3182" gradientUnits="userSpaceOnUse">
<stop offset="0.115385" stop-color="#D9C7FE"/>
<stop offset="0.625" stop-color="#D6D6D6"/>
<stop offset="0.913462" stop-color="#BFC6F8"/>
</linearGradient>
<clipPath id="clip0_1_200">
<rect x="6.65247" y="0.825043" width="137" height="54" rx="20" transform="rotate(6.26218 6.65247 0.825043)" fill="white"/>
</clipPath>
</defs>
</svg>
