<svg width="10" height="10" viewBox="0 0 10 10" fill="none" xmlns="http://www.w3.org/2000/svg">
<path d="M3.75 0V0.833333H2.08333C1.39792 0.833333 0.833333 1.39792 0.833333 2.08333V3.75H0V6.25H2.5V3.75H1.66667V2.08333C1.66667 1.8475 1.8475 1.66667 2.08333 1.66667H3.75V2.5H6.25V0H3.75ZM4.58333 0.833333H5.41667V1.66667H4.58333V0.833333ZM6.66667 0.833333V1.66667H7.91667C8.1525 1.66667 8.33333 1.8475 8.33333 2.08333V3.75H7.5V6.25H10V3.75H9.16667V2.08333C9.16667 1.39792 8.60208 0.833333 7.91667 0.833333H6.66667ZM0.833333 4.58333H1.66667V5.41667H0.833333V4.58333ZM8.33333 4.58333H9.16667V5.41667H8.33333V4.58333ZM0.833333 6.66667V7.91667C0.833333 8.60208 1.39792 9.16667 2.08333 9.16667H3.75V10H6.25V7.5H3.75V8.33333H2.08333C1.8475 8.33333 1.66667 8.1525 1.66667 7.91667V6.66667H0.833333ZM8.33333 6.66667V7.91667C8.33333 8.1525 8.1525 8.33333 7.91667 8.33333H6.66667V9.16667H7.91667C8.60208 9.16667 9.16667 8.60208 9.16667 7.91667V6.66667H8.33333ZM4.58333 8.33333H5.41667V9.16667H4.58333V8.33333Z" fill="white"/>
</svg>
