<svg width="12" height="12" viewBox="0 0 12 12" fill="none" xmlns="http://www.w3.org/2000/svg">
<path d="M1.25215 1.9473L2.18674 2.87933C4.25621 0.815534 7.66081 0.815534 9.73027 2.87933L10.6649 1.9473C8.1281 -0.649098 3.85566 -0.649098 1.25215 1.9473ZM3.1881 3.87795L4.12269 4.80999C5.1908 3.7448 6.85972 3.7448 7.92783 4.80999L8.86243 3.87795C7.26026 2.28017 4.7235 2.28017 3.1881 3.87795ZM5.85837 8.00555C5.32432 6.47434 3.58864 5.60888 2.05323 6.20804C0.517821 6.80721 -0.416775 8.47157 0.184037 10.0028C0.784848 11.534 2.45377 12.3994 3.98918 11.8003C4.85702 11.4674 5.52459 10.8017 5.79161 10.0028H7.99459V12H9.99729V10.0028H12V8.00555M2.98782 10.0028C2.45377 10.0028 1.98647 9.53675 1.98647 9.00416C1.98647 8.47157 2.45377 8.00555 2.98782 8.00555C3.52188 8.00555 3.98918 8.47157 3.98918 9.00416C3.98918 9.53675 3.52188 10.0028 2.98782 10.0028Z" fill="white"/>
</svg>
