<svg width="12" height="12" viewBox="0 0 12 12" fill="none" xmlns="http://www.w3.org/2000/svg">
<g clip-path="url(#clip0_1_149)">
<path d="M2.88664 8.32771C2.71697 8.25827 2.59647 8.13849 2.52514 7.96836C2.45382 7.79823 2.45281 7.62818 2.52213 7.45821L3.78457 4.3732C3.85401 4.20352 3.97389 4.08306 4.14423 4.01182C4.31457 3.94058 4.48451 3.93954 4.65407 4.00868L4.96257 4.13493L5.21506 3.51792C5.3897 3.09116 5.68899 2.789 6.11292 2.61145C6.53686 2.43389 6.96215 2.43229 7.38879 2.60664C7.81543 2.78099 8.11769 3.08032 8.29557 3.50463C8.47346 3.92894 8.47496 4.35419 8.30008 4.78037L8.04759 5.39737L8.35609 5.52362C8.52577 5.59305 8.64633 5.71298 8.71777 5.8834C8.78922 6.05382 8.79016 6.22373 8.7206 6.39311L7.45816 9.47813C7.38872 9.64781 7.2689 9.76841 7.09868 9.83994C6.92847 9.91147 6.75846 9.91237 6.58866 9.84264L2.88664 8.32771ZM3.13913 7.7107L6.84115 9.22564L8.1036 6.14062L4.40158 4.62569L3.13913 7.7107ZM5.36888 7.54267C5.53855 7.6121 5.70856 7.6112 5.87889 7.53996C6.04923 7.46872 6.16906 7.34812 6.23837 7.17815C6.30768 7.00819 6.30674 6.83828 6.23554 6.66844C6.16433 6.4986 6.04377 6.37867 5.87385 6.30866C5.70394 6.23865 5.53399 6.23969 5.36402 6.3118C5.19405 6.38391 5.07416 6.50437 5.00436 6.67317C4.93456 6.84198 4.93557 7.01203 5.00738 7.18332C5.07919 7.35461 5.19969 7.47439 5.36888 7.54267ZM5.57957 4.38742L7.43058 5.14488L7.68307 4.52788C7.78828 4.2708 7.78772 4.01545 7.6814 3.76185C7.57509 3.50825 7.39339 3.32885 7.1363 3.22364C6.87922 3.11844 6.62387 3.11899 6.37027 3.22531C6.11667 3.33163 5.93727 3.51333 5.83206 3.77041L5.57957 4.38742Z" fill="white"/>
</g>
<defs>
<clipPath id="clip0_1_149">
<rect width="8" height="8" fill="white" transform="translate(3.81299 0.783203) rotate(22.2553)"/>
</clipPath>
</defs>
</svg>
