<svg width="24" height="24" viewBox="0 0 24 24" fill="none" xmlns="http://www.w3.org/2000/svg">
<path d="M6.40642 2.5079C6.36611 2.53304 6.23847 2.61426 6.12234 2.68487C3.45913 4.34336 1.60481 7.16647 1.11626 10.3147C0.843254 12.0658 0.989577 13.8222 1.54622 15.4801C1.73956 16.0593 1.81032 16.2235 2.1792 16.9549C2.54807 17.6864 2.63804 17.8409 2.98882 18.3407C5.38253 21.7597 9.57009 23.5347 13.7091 22.8876C14.4502 22.7715 15.193 22.5727 15.9998 22.2718C16.3139 22.1544 17.6004 21.5056 17.8816 21.3229C19.1272 20.5117 20.0801 19.6217 20.8986 18.5034C21.0241 18.3318 21.0451 18.2923 21.0124 18.2847C20.9912 18.2809 19.7841 17.6783 18.3314 16.9468L15.6908 15.6174L12.2539 13.6974C10.3634 12.6423 8.81213 11.7823 8.80445 11.7861C8.7958 11.7881 9.44068 13.086 10.2337 14.668C11.6231 17.4375 11.6773 17.5498 11.6756 17.6325C11.6732 17.7518 11.6541 17.8095 11.5948 17.8925C11.5488 17.9542 11.498 17.987 11.208 18.1333L10.8758 18.3008L10.7594 18.2896C10.6834 18.2822 10.617 18.2555 10.5601 18.2144L10.4762 18.1483L8.53881 14.2969L6.60238 10.4427L6.62415 10.3378C6.63454 10.282 6.67369 10.1972 6.70718 10.149C6.76655 10.0709 6.79534 10.0516 7.12753 9.88407C7.51925 9.68653 7.59228 9.66896 7.75021 9.729C7.7945 9.74519 9.66961 10.8128 11.9196 12.1032C14.1696 13.3936 17.2444 15.1542 18.7543 16.0183L21.4976 17.5897L21.5502 17.4981C22.0187 16.6935 22.4308 15.6766 22.6757 14.7103C23.1987 12.6573 23.1222 10.514 22.4558 8.52381C22.2624 7.94462 22.1917 7.78042 21.8228 7.04894C21.4539 6.31745 21.364 6.16294 21.0132 5.66314C18.6195 2.24419 14.4319 0.469154 10.2929 1.11633C9.56235 1.22946 8.82345 1.42629 8.03197 1.71946C7.83795 1.79322 6.55805 2.41217 6.40642 2.5079ZM13.4229 6.42043C13.5383 6.42002 13.6577 6.47058 13.7311 6.54917C13.7716 6.59135 14.3138 7.65688 15.5231 10.0645L17.2581 13.5194L16.1788 12.8933L15.0977 12.2681L13.8323 9.75878C13.0141 8.13646 12.5619 7.22063 12.5512 7.17066C12.5277 7.04765 12.5523 6.92928 12.6193 6.83288C12.6777 6.75286 12.7046 6.7345 13.006 6.58247C13.2902 6.43916 13.3421 6.41782 13.4229 6.42043Z" fill="black"/>
</svg>
