<svg width="56" height="33" viewBox="0 0 56 33" fill="none" xmlns="http://www.w3.org/2000/svg">
<path fill-rule="evenodd" clip-rule="evenodd" d="M25.4856 0.283285C24.0029 0.848647 23.3859 1.67951 23.3859 3.17569C23.3859 4.40012 26.8204 17.9344 28.2056 22.1044C29.8867 27.1801 31.0231 27.3269 31.4166 22.4979C31.7881 17.6439 32.3296 13.8426 33.2708 9.57583C35.0999 1.18911 34.656 0.186455 29.1941 0.0146603C27.2423 -0.0353164 26.2034 0.0396489 25.4888 0.283285H25.4856ZM31.0452 2.46664C32.232 2.86021 32.232 3.27564 31.1931 8.3514C30.7241 10.6566 30.2046 13.6239 30.0567 14.8983C29.5876 18.6497 29.5624 18.6997 29.043 16.4914C28.7723 15.4137 27.8813 12.0059 27.066 8.93862C26.2506 5.84944 25.6336 3.17569 25.706 2.98203C25.7816 2.78524 26.1027 2.51662 26.3986 2.3948C27.214 2.0762 30.0315 2.12618 31.0452 2.46977V2.46664Z" fill="black"/>
<path fill-rule="evenodd" clip-rule="evenodd" d="M47.1822 4.35326C46.3669 4.69685 45.923 5.53084 45.6491 7.29564C44.8338 12.4432 44.3143 17.619 44.2891 20.9018L44.264 24.5782L44.9061 24.6532C45.7467 24.75 46.7352 23.6474 48.0196 21.2204C48.539 20.2396 50.3681 17.2972 52.0964 14.6984C55.6789 9.32907 56 8.78869 56 7.90785C56 6.97704 55.3326 6.48664 52.4899 5.38091C49.6724 4.30329 48.0416 3.98468 47.1759 4.35014L47.1822 4.35326ZM51.5077 7.53928C52.8425 8.05466 53.4847 8.42324 53.3619 8.59503C53.2643 8.76683 52.0019 10.6534 50.5696 12.8118C49.1372 14.9702 47.6544 17.2254 47.3081 17.8376C46.9366 18.4498 46.6407 18.7934 46.6156 18.6216C46.6156 18.253 47.8024 8.4451 48.0007 7.3175C48.1235 6.58347 48.1991 6.50851 48.7909 6.63033C49.1624 6.70529 50.3712 7.12072 51.5077 7.53615V7.53928Z" fill="black"/>
<path fill-rule="evenodd" clip-rule="evenodd" d="M6.58143 11.6342C6.3831 11.7092 5.93925 12.0028 5.61814 12.2964C4.82797 13.0086 0.256951 19.112 0.058622 19.7492C-0.212113 20.5332 0.477309 21.8326 1.66413 22.8134C2.28116 23.2788 5.14906 25.1436 8.039 26.9084C10.9541 28.6982 13.9952 30.5848 14.7853 31.1252C17.6532 33.0368 19.306 33.5022 19.5799 32.4495C19.753 31.7374 19.7027 31.6405 15.5755 24.6782C13.7717 21.614 11.5491 17.7158 10.633 15.9978C8.50806 12.0028 7.76511 11.2157 6.58143 11.6342ZM9.05271 18.0812C10.1168 20.1896 13.822 26.6366 14.9333 28.3296C15.204 28.77 14.587 28.4764 12.61 27.252C4.85 22.5198 2.37876 20.8268 2.37876 20.2896C2.37876 20.1928 3.39244 18.7434 4.62649 17.1036L6.87422 14.1112L7.34328 14.8952C7.61402 15.3107 8.38216 16.76 9.04956 18.0812H9.05271Z" fill="black"/>
</svg>
