<svg width="12" height="12" viewBox="0 0 12 12" fill="none" xmlns="http://www.w3.org/2000/svg">
<path d="M4.15817 11.1177L7.42875 9.87137C7.45973 9.85956 7.48475 9.83594 7.49831 9.80568C7.51187 9.77543 7.51285 9.74103 7.50105 9.71005C7.48924 9.67907 7.46562 9.65405 7.43536 9.64049C7.40511 9.62693 7.37071 9.62595 7.33973 9.63775L4.06914 10.8841C4.03817 10.8959 4.00377 10.8949 3.97351 10.8813C3.94326 10.8678 3.91963 10.8427 3.90783 10.8118L1.32621 4.03697C1.3144 4.00599 1.31539 3.97159 1.32894 3.94134C1.3425 3.91109 1.36752 3.88746 1.3985 3.87565L6.30438 2.0062C6.33536 1.9944 6.36976 1.99538 6.40001 2.00894C6.43027 2.0225 6.45389 2.04752 6.4657 2.0785L6.91081 3.24657C6.92261 3.27755 6.94624 3.30257 6.97649 3.31613C7.00675 3.32968 7.04114 3.33067 7.07212 3.31886C7.1031 3.30706 7.12812 3.28343 7.14168 3.25318C7.15524 3.22292 7.15622 3.18853 7.14442 3.15755L6.69931 1.98948C6.62569 1.79628 6.40856 1.69897 6.21536 1.77259L1.30948 3.64204C1.11628 3.71566 1.01897 3.9328 1.09259 4.12599L3.67421 10.9008C3.74783 11.094 3.96497 11.1913 4.15817 11.1177Z" fill="black"/>
<path d="M6.09883 4.62612L7.87925 9.29838C7.95288 9.49158 8.17001 9.58889 8.36321 9.51527L10.933 8.53603C11.1262 8.46241 11.2235 8.24528 11.1498 8.05208L9.36941 3.37982C9.29579 3.18662 9.07866 3.08931 8.88546 3.16293L6.31571 4.14216C6.12252 4.21578 6.02521 4.43292 6.09883 4.62612ZM9.1358 3.46884L10.9162 8.1411C10.928 8.17208 10.927 8.20648 10.9135 8.23674C10.8999 8.26699 10.8749 8.29062 10.8439 8.30242L8.27419 9.28166C8.24321 9.29346 8.20881 9.29248 8.17855 9.27892C8.1483 9.26536 8.12467 9.24034 8.11287 9.20936L6.33244 4.53709C6.32063 4.50612 6.32162 4.47172 6.33518 4.44146C6.34874 4.41121 6.37376 4.38758 6.40474 4.37578L8.97448 3.39654C9.00546 3.38474 9.03986 3.38572 9.07011 3.39928C9.10037 3.41284 9.12399 3.43786 9.1358 3.46884Z" fill="black"/>
<path d="M6.34404 9.48209C6.47307 9.43292 6.5378 9.28847 6.48864 9.15945C6.43947 9.03043 6.29502 8.9657 6.166 9.01486C6.03698 9.06403 5.97224 9.20847 6.02141 9.3375C6.07057 9.46652 6.21502 9.53125 6.34404 9.48209Z" fill="black"/>
<path d="M9.38102 8.3248C9.51004 8.27563 9.57477 8.13119 9.52561 8.00216C9.47644 7.87314 9.33199 7.80841 9.20297 7.85757C9.07395 7.90674 9.00922 8.05119 9.05838 8.18021C9.10755 8.30923 9.252 8.37396 9.38102 8.3248Z" fill="black"/>
</svg>
