<svg width="58" height="63" viewBox="0 0 58 63" fill="none" xmlns="http://www.w3.org/2000/svg">
<path fill-rule="evenodd" clip-rule="evenodd" d="M26.8782 1.67462C25.9255 3.98443 26.3354 8.02084 28.1485 14.9098C29.9615 21.7064 31.2318 25.0152 31.8669 24.79C32.6349 24.5648 32.5483 11.7338 31.7746 6.79661C30.9142 1.49561 30.2791 0 28.7837 0C27.8309 0 27.4671 0.363808 26.8782 1.67462Z" fill="url(#paint0_linear_1_238)"/>
<path fill-rule="evenodd" clip-rule="evenodd" d="M41.9715 12.19C41.1574 13.0966 39.0268 18.7152 38.9806 20.0318C38.9806 21.666 40.3375 20.7594 41.9715 18.0396C44.3735 14.1418 44.3735 9.56258 41.9715 12.19Z" fill="url(#paint1_linear_1_238)"/>
<path fill-rule="evenodd" clip-rule="evenodd" d="M51.851 17.1792C51.0831 17.9472 49.2238 20.7132 47.636 23.3464C43.1957 30.6916 44.7375 31.3672 51.037 24.842C56.3837 19.31 57.5616 16.2321 54.5706 15.955C53.5255 15.8626 52.85 16.134 51.851 17.1792Z" fill="url(#paint2_linear_1_238)"/>
<path fill-rule="evenodd" clip-rule="evenodd" d="M12.241 17.6296C11.9696 18.1262 11.8773 19.0328 12.0621 19.6218C12.651 22.024 19.3604 27.0536 20.4921 25.9218C21.26 25.1538 20.5845 23.5658 18.0439 20.1646C16.0518 17.5372 15.3706 16.9482 14.1927 16.8558C13.1071 16.7634 12.6509 16.9482 12.241 17.6238V17.6296Z" fill="url(#paint3_linear_1_238)"/>
<path fill-rule="evenodd" clip-rule="evenodd" d="M3.08339 34.8549C1.40892 35.2187 0 36.0792 0 36.7606C0 36.9396 0.317578 37.442 0.727536 37.8058C1.68025 38.7586 8.20493 38.7124 14.0078 37.7134C18.3615 36.9454 19.5856 36.1716 17.5877 35.4036C16.1384 34.8608 5.12163 34.4507 3.08339 34.8607V34.8549Z" fill="url(#paint4_linear_1_238)"/>
<path fill-rule="evenodd" clip-rule="evenodd" d="M49.9976 35.1726C49.68 36.033 50.3613 36.5296 52.7171 37.211C55.2981 37.8924 57.7464 37.5748 57.9774 36.5296C58.2025 35.0802 56.7532 34.445 53.3984 34.445C50.9502 34.445 50.2285 34.5836 49.9976 35.1726Z" fill="url(#paint5_linear_1_238)"/>
<path fill-rule="evenodd" clip-rule="evenodd" d="M17.7263 40.7912C13.3323 43.101 12.1544 44.2386 12.3334 46.0056C12.4258 47.0912 12.6972 47.4088 13.6499 47.5012C14.6027 47.5936 15.5091 47.0508 17.6398 45.0528C21.2659 41.6978 22.3975 40.156 21.6296 39.5208C21.2196 39.157 20.1341 39.5208 17.7321 40.7912H17.7263Z" fill="url(#paint6_linear_1_238)"/>
<path fill-rule="evenodd" clip-rule="evenodd" d="M41.2498 45.099C41.2498 45.9132 45.1011 49.7648 48.1844 52.0803C51.1292 54.2111 52.9423 54.9387 54.8939 54.7539C56.1642 54.6616 56.4817 54.4364 56.5683 53.397C56.7935 51.5838 54.1664 49.3201 48.8196 46.687C44.1484 44.3772 41.2498 43.7882 41.2498 45.099Z" fill="url(#paint7_linear_1_238)"/>
<path fill-rule="evenodd" clip-rule="evenodd" d="M25.7003 48.633C23.0731 51.4914 19.0371 58.0166 18.7195 60.0088C18.402 61.9144 19.1295 63 20.5788 63C22.5708 63 24.9728 59.3274 27.3748 52.6636C29.4131 46.9526 28.7316 45.3184 25.7003 48.6272V48.633Z" fill="url(#paint8_linear_1_238)"/>
<path fill-rule="evenodd" clip-rule="evenodd" d="M33.4952 48.3616C32.7273 50.3538 33.1776 55.522 34.1765 56.6134C35.2216 57.7452 36.8037 57.8376 37.6641 56.8386C38.3916 55.932 37.6641 52.1266 36.2148 49.1354C35.0369 46.8256 34.1766 46.5946 33.4952 48.3673V48.3616Z" fill="url(#paint9_linear_1_238)"/>
<defs>
<linearGradient id="paint0_linear_1_238" x1="29" y1="0" x2="29" y2="63" gradientUnits="userSpaceOnUse">
<stop stop-color="#A25AFF"/>
<stop offset="1" stop-color="#666666"/>
</linearGradient>
<linearGradient id="paint1_linear_1_238" x1="29" y1="0" x2="29" y2="63" gradientUnits="userSpaceOnUse">
<stop stop-color="#A25AFF"/>
<stop offset="1" stop-color="#666666"/>
</linearGradient>
<linearGradient id="paint2_linear_1_238" x1="29" y1="0" x2="29" y2="63" gradientUnits="userSpaceOnUse">
<stop stop-color="#A25AFF"/>
<stop offset="1" stop-color="#666666"/>
</linearGradient>
<linearGradient id="paint3_linear_1_238" x1="29" y1="0" x2="29" y2="63" gradientUnits="userSpaceOnUse">
<stop stop-color="#A25AFF"/>
<stop offset="1" stop-color="#666666"/>
</linearGradient>
<linearGradient id="paint4_linear_1_238" x1="29" y1="0" x2="29" y2="63" gradientUnits="userSpaceOnUse">
<stop stop-color="#A25AFF"/>
<stop offset="1" stop-color="#666666"/>
</linearGradient>
<linearGradient id="paint5_linear_1_238" x1="29" y1="0" x2="29" y2="63" gradientUnits="userSpaceOnUse">
<stop stop-color="#A25AFF"/>
<stop offset="1" stop-color="#666666"/>
</linearGradient>
<linearGradient id="paint6_linear_1_238" x1="29" y1="0" x2="29" y2="63" gradientUnits="userSpaceOnUse">
<stop stop-color="#A25AFF"/>
<stop offset="1" stop-color="#666666"/>
</linearGradient>
<linearGradient id="paint7_linear_1_238" x1="29" y1="0" x2="29" y2="63" gradientUnits="userSpaceOnUse">
<stop stop-color="#A25AFF"/>
<stop offset="1" stop-color="#666666"/>
</linearGradient>
<linearGradient id="paint8_linear_1_238" x1="29" y1="0" x2="29" y2="63" gradientUnits="userSpaceOnUse">
<stop stop-color="#A25AFF"/>
<stop offset="1" stop-color="#666666"/>
</linearGradient>
<linearGradient id="paint9_linear_1_238" x1="29" y1="0" x2="29" y2="63" gradientUnits="userSpaceOnUse">
<stop stop-color="#A25AFF"/>
<stop offset="1" stop-color="#666666"/>
</linearGradient>
</defs>
</svg>
