<svg width="35" height="35" viewBox="0 0 35 35" fill="none" xmlns="http://www.w3.org/2000/svg">
<path fill-rule="evenodd" clip-rule="evenodd" d="M26.8717 33.8759C26.7163 33.6963 26.7117 33.5789 26.8154 33.4051C26.9909 33.1328 27.5328 33.0045 28.9803 32.905C29.7372 32.8436 29.9623 32.7959 29.7871 32.7055C27.3798 31.5569 26.4028 30.9028 25.2585 29.6923C23.6337 27.9549 22.4258 25.6776 21.6825 22.9053L21.2649 21.3475L19.5385 21.1692C17.683 20.993 16.7182 20.6894 15.4124 19.9204C14.0943 19.1373 12.4129 17.4733 11.5269 16.1003C11.0164 15.286 10.4726 13.8476 10.3362 12.8927L10.1945 11.9885L9.34257 11.9257C8.15517 11.8382 7.02833 11.4452 5.58491 10.6133C2.94508 9.09799 1.38181 6.70554 0.579642 2.98232C0.157361 0.970737 0.20318 -0.0103461 0.719582 0.0276942C0.913643 0.0419896 1.003 0.243149 1.16676 1.00552C1.63224 3.14891 1.89755 4.12653 2.37951 5.32789C3.49772 8.12785 6.14685 10.2128 9.19998 10.6966L10.162 10.8581L10.2763 10.362C10.8107 8.04487 11.47 6.83854 12.9114 5.61066C14.5452 4.21721 16.4375 4.25272 17.3567 5.69241C17.6834 6.1947 17.6639 7.51413 17.3178 8.32963C16.6575 9.88549 14.4846 11.3695 12.1926 11.8223L11.3615 11.9936L11.4187 12.4513C11.5904 14.0042 12.2448 15.3337 13.6095 16.8969C15.0931 18.5975 17.0103 19.71 19.1001 20.0717C20.0743 20.2473 21.1185 20.1692 21.084 19.9194C21.0775 19.8282 21.0777 19.129 21.0801 18.3789C21.1294 15.599 22.1353 13.033 23.652 11.837C24.5069 11.1629 25.2808 10.8703 26.2289 10.8626C28.2927 10.8597 29.5764 12.468 29.1739 14.5871C28.6997 17.1411 26.3217 19.6588 23.3866 20.737C22.9192 20.9104 22.5298 21.101 22.5251 21.165C22.5051 21.4356 23.0714 23.4446 23.4519 24.4307C24.5043 27.2258 26.1798 29.3297 28.3928 30.6454C29.1127 31.086 31.5885 32.2017 31.8582 32.2216C31.9355 32.2272 31.7395 31.9028 31.4043 31.5153C30.013 29.7951 29.2355 28.1845 29.5599 27.6642C29.9099 27.1326 30.3656 27.4778 31.1217 28.8412C31.4315 29.395 32.3668 30.6149 33.3237 31.721C34.2344 32.7594 34.9692 33.6924 34.9626 33.7826C34.956 33.8728 34.8644 34.0607 34.7514 34.181C34.5666 34.3999 34.3574 34.4109 32.1899 34.2512C30.8847 34.1682 29.2035 34.0955 28.4497 34.0928C27.2415 34.1076 27.0484 34.0802 26.8703 33.8725L26.8717 33.8759ZM24.3596 18.9997C26.1901 17.944 27.7262 15.9464 27.9361 14.331C28.0751 13.3188 27.8963 12.7615 27.3253 12.4094C26.5057 11.9087 25.0554 12.2026 24.2275 13.0486C23.7212 13.5687 23.0656 14.7242 22.7034 15.7578C22.4221 16.5913 22.1791 18.8127 22.3088 19.5215L22.3614 19.8617L22.96 19.6601C23.2927 19.5428 23.9242 19.2529 24.3579 18.9996L24.3596 18.9997ZM13.2727 10.2232C14.382 9.80031 15.6462 8.84467 16.0755 8.11279C16.6846 7.07096 16.5052 5.98258 15.6931 5.71663C14.8696 5.44819 13.3376 6.51438 12.4238 7.98726C11.9833 8.69192 11.4126 10.0878 11.3634 10.5756C11.3491 10.7691 12.3095 10.5942 13.271 10.2247L13.2727 10.2232Z" fill="white"/>
</svg>
