<svg width="29" height="13" viewBox="0 0 29 13" fill="none" xmlns="http://www.w3.org/2000/svg">
<path fill-rule="evenodd" clip-rule="evenodd" d="M18.6723 0.152453C17.9665 0.396626 17.31 0.842136 16.7135 1.48898C15.7893 2.4721 15.3941 3.48949 15.453 4.73392L15.4862 5.37327L14.8137 5.5414C13.3422 5.90338 12.3088 6.01262 10.1476 6.01262C7.46598 6.00405 6.99478 5.93658 2.71639 4.86886C1.23635 4.50688 0.0176188 4.22201 0.00155471 4.23807C-0.0155803 4.25521 0.110808 4.38908 0.287512 4.54115C1.08643 5.2469 3.66737 6.13792 6.40683 6.65946C7.30641 6.8276 7.66731 6.8533 9.76956 6.8533C12.3248 6.8533 13.233 6.74406 14.8812 6.27285C15.2849 6.14648 15.6297 6.05438 15.6458 6.05438C15.6619 6.05438 15.7882 6.25572 15.9317 6.49132C16.6546 7.77752 18.2514 8.63534 20.269 8.81954C20.7734 8.86987 21.2607 8.89558 21.3614 8.86987C21.4535 8.85274 21.7897 8.81954 22.0928 8.78634L22.6561 8.74457L22.7065 9.12261C22.7397 9.32395 22.8917 9.7534 23.0513 10.064C23.8502 11.6532 25.825 12.5603 27.7003 12.1994C28.4231 12.057 28.3225 11.9809 27.1123 11.7207C25.0186 11.2838 24.2036 10.7708 23.6403 9.54349C23.5311 9.30789 23.4304 8.99732 23.4133 8.83775C23.3876 8.56037 23.4047 8.55181 23.8256 8.4008C25.0529 7.981 26.0531 7.21528 26.171 6.60163C26.2299 6.24822 26.0285 5.84555 25.6997 5.67741C25.3806 5.50928 24.6663 5.51784 24.33 5.68598C23.6071 6.05545 22.9603 6.8458 22.7664 7.60296L22.6743 7.97243L22.111 8.0399C21.3549 8.11593 19.8921 8.02276 19.2698 7.85463C18.1015 7.54405 16.992 6.77834 16.6643 6.06402C16.5807 5.87018 16.5293 5.71061 16.5464 5.69455C16.5636 5.68598 16.8495 5.54355 17.1687 5.38398C18.6059 4.66966 19.8674 3.65227 20.4811 2.69379C20.8934 2.063 21.0272 1.61749 20.9683 1.07132C20.8848 0.163162 19.8503 -0.248077 18.6733 0.154595L18.6723 0.152453ZM20.2444 0.833568C20.404 0.959939 20.4457 1.06918 20.4382 1.36368C20.4211 2.11976 19.6982 3.10395 18.623 3.84397C17.8915 4.34838 16.479 5.07126 16.3697 5.00379C16.2605 4.93632 16.2691 4.18024 16.3783 3.70046C16.4876 3.21319 16.8067 2.59954 17.1772 2.14547C18.0768 1.04454 19.665 0.363427 20.2455 0.833568H20.2444ZM25.356 6.29748C25.6751 6.49882 24.919 7.1885 23.9605 7.55798C23.6328 7.68435 23.515 7.70041 23.515 7.62545C23.515 7.48301 23.952 6.8019 24.1544 6.63376C24.5742 6.27178 25.0957 6.12935 25.356 6.29748Z" fill="#645FB5"/>
</svg>
