<svg width="22" height="25" viewBox="0 0 22 25" fill="none" xmlns="http://www.w3.org/2000/svg">
<path fill-rule="evenodd" clip-rule="evenodd" d="M7.0796 0.123848C6.8108 0.442987 6.9618 2.13292 7.2563 2.13292C7.55081 2.13292 7.72752 0.552222 7.45764 0.174182C7.30664 -0.044289 7.23061 -0.0528562 7.0796 0.123848Z" fill="white"/>
<path fill-rule="evenodd" clip-rule="evenodd" d="M6.80972 3.99849C6.77652 4.0242 6.75082 4.39367 6.75082 4.82204C6.75082 6.82255 5.8009 8.32722 3.99316 9.18504C3.71579 9.31998 3.45555 9.48811 3.42985 9.55451C3.34632 9.79012 3.55622 9.90792 4.05206 9.89935C4.84241 9.88222 5.39716 10.1007 5.84267 10.6222C6.06971 10.8739 6.30531 11.7146 6.41455 12.6399C6.53235 13.623 6.62445 13.9175 6.84292 13.985C7.03676 14.0524 7.31413 13.9014 7.37304 13.7162C7.39017 13.6326 7.4737 13.2375 7.54117 12.8423C7.70074 12.0102 7.93635 11.2702 8.18052 10.875C8.39042 10.5301 8.85307 10.3031 9.69375 10.1103C10.3577 9.95076 10.618 9.80725 10.618 9.57272C10.618 9.33818 10.3577 9.16897 9.76015 9.02654C9.07903 8.84984 8.49109 8.50499 8.26406 8.12695C7.99525 7.69001 7.77678 6.85789 7.54974 5.42819C7.4405 4.69674 7.3227 4.06596 7.29807 4.0242C7.23917 3.9321 6.89433 3.91496 6.81079 3.99849H6.80972Z" fill="white"/>
<path fill-rule="evenodd" clip-rule="evenodd" d="M12.5681 9.57272C12.2319 9.64875 12.1815 9.69909 12.2404 9.85009C12.2993 10.0097 13.0554 10.1864 13.6691 10.1864C14.0642 10.1864 14.1906 10.1532 14.3416 10.0011L14.5269 9.81582L14.3255 9.64768C14.166 9.52131 14.0064 9.48811 13.4849 9.49668C13.1315 9.50525 12.7202 9.53845 12.5681 9.57272Z" fill="white"/>
<path fill-rule="evenodd" clip-rule="evenodd" d="M0.387325 9.88329C0.0253486 9.92506 -0.0999527 10.1521 0.0842482 10.4134C0.210619 10.5901 0.26095 10.5987 0.731091 10.5558C1.63924 10.4723 2.46279 10.0686 1.94125 9.95933C1.62211 9.89186 0.672193 9.85009 0.386253 9.88329H0.387325Z" fill="white"/>
<path fill-rule="evenodd" clip-rule="evenodd" d="M16.7555 11.1695C16.6377 11.2873 16.5874 11.4469 16.5874 11.7328C16.5874 12.2629 16.7298 12.7662 16.8819 12.7662C17.0339 12.7662 17.2599 12.0262 17.2599 11.539C17.2599 11.0763 17.0243 10.8996 16.7555 11.1695Z" fill="white"/>
<path fill-rule="evenodd" clip-rule="evenodd" d="M16.4353 13.9603C16.3764 14.0192 16.3346 14.2206 16.3346 14.4059C16.3346 14.8846 16.1922 15.6503 15.9812 16.2886C15.7713 16.9525 15.3001 17.4484 14.695 17.6754C13.8126 18.0031 13.804 18.3223 14.6618 18.4904C14.9392 18.5407 15.2926 18.6757 15.435 18.7678C15.7884 19.0034 15.8977 19.4735 15.9062 20.7769C15.9148 21.7525 15.9148 21.7685 16.1247 21.8617C16.5028 22.0298 16.6463 21.7782 16.7384 20.7854C16.7887 20.3142 16.8808 19.8184 16.9568 19.6759C17.1507 19.2979 17.6122 18.9531 18.2345 18.7346C19.1758 18.4069 19.1758 17.9528 18.2345 17.6422C17.94 17.5501 17.6379 17.3981 17.5619 17.3231C17.3102 17.0371 17.1753 16.4321 17.0993 15.238C17.0575 14.5826 16.9986 14.0021 16.9643 13.9518C16.8969 13.8254 16.5606 13.834 16.4342 13.9603H16.4353Z" fill="white"/>
<path fill-rule="evenodd" clip-rule="evenodd" d="M6.86113 15.8098C6.72619 15.9694 6.58376 16.8358 6.58376 17.4912C6.58376 17.9539 6.61696 18.0963 6.7519 18.2312C6.95323 18.4326 7.03783 18.4411 7.2231 18.2569C7.34091 18.1306 7.35805 18.0053 7.30664 17.307C7.22311 16.0712 7.06246 15.5582 6.86113 15.8109V15.8098Z" fill="white"/>
<path fill-rule="evenodd" clip-rule="evenodd" d="M11.3408 18.0042C11.1052 18.1809 11.2059 18.4326 11.5422 18.5172C11.9706 18.6178 12.8198 18.4336 12.7866 18.2484C12.7277 17.9539 11.6514 17.7772 11.3408 18.0042Z" fill="white"/>
<path fill-rule="evenodd" clip-rule="evenodd" d="M20.3025 18.0792C19.7895 18.1884 19.8484 18.3983 20.4374 18.5579C21.0178 18.7089 21.488 18.6168 21.5297 18.3394C21.5801 18.0117 21.0757 17.9025 20.3025 18.0792Z" fill="white"/>
<path fill-rule="evenodd" clip-rule="evenodd" d="M15.8891 23.3332C15.6032 24.0732 15.6374 24.8046 15.9726 24.855C16.2586 24.8967 16.4599 24.191 16.3507 23.4852C16.2747 22.9476 16.0733 22.8802 15.888 23.3342L15.8891 23.3332Z" fill="white"/>
</svg>
