<svg width="127" height="110" viewBox="0 0 127 110" fill="none" xmlns="http://www.w3.org/2000/svg">
<path fill-rule="evenodd" clip-rule="evenodd" d="M99.327 0.56548C98.7497 1.14211 98.7045 1.54346 99.0158 2.16531C99.5478 3.14331 101.37 3.71994 106.3 4.42659C108.876 4.82796 109.634 5.04844 109.012 5.31414C100.482 8.64388 96.9724 10.6395 92.7498 14.5006C86.75 20.0464 82.0406 27.5482 78.7973 36.8646L76.9748 42.0995L71.0202 42.2747C64.6241 42.4104 61.2449 43.2075 56.5809 45.514C51.8715 47.8657 45.6962 53.1458 42.3171 57.6288C40.3643 60.2915 38.1398 65.0854 37.4323 68.3247L36.7191 71.3887H33.7871C29.7004 71.3887 25.7439 72.4515 20.5931 74.9389C11.1744 79.4671 5.21981 87.2742 1.53499 99.8356C-0.417794 106.625 -0.508341 110 1.26898 110C1.93688 110 2.29349 109.333 3.0463 106.761C5.18021 99.5303 6.33491 96.2458 8.28769 92.249C12.8215 82.9325 22.4157 76.454 32.989 75.5664L36.3229 75.2555L36.5889 76.9854C37.8342 85.0638 39.7869 89.3659 44.4113 93.9393C49.6527 99.1289 56.1394 99.4851 59.6488 94.7816C60.894 93.1422 61.16 88.614 60.1808 85.7308C58.3129 80.2303 51.2489 74.5941 43.5171 72.4628L40.7153 71.6657L41.0265 70.1111C42.0058 64.831 44.5812 60.4384 49.6471 55.4241C55.1545 49.9687 61.9977 46.639 69.2428 45.9267C72.622 45.5706 76.1767 46.102 75.9955 46.9499C75.9503 47.2609 75.7748 49.6578 75.5937 52.23C75.0616 61.7726 77.8577 70.8234 82.7482 75.3064C85.5047 77.8333 88.0801 79.0318 91.3235 79.2975C98.3874 79.8289 103.187 74.6393 102.344 67.2732C101.365 58.3977 93.8593 49.166 84.0841 44.7282C82.5275 44.0159 81.2426 43.264 81.2426 43.0436C81.2426 42.1108 83.6878 35.3665 85.2387 32.082C89.5461 22.7656 95.8121 15.9761 103.719 12.0245C106.295 10.696 115.051 7.49627 115.98 7.49627C116.246 7.49627 115.493 8.55908 114.247 9.80278C109.051 15.3486 105.984 20.6739 106.963 22.5394C108.027 24.4502 109.674 23.3818 112.606 18.8988C113.806 17.0785 117.315 13.1325 120.87 9.5823C124.249 6.25257 127 3.23944 127 2.92851C127 2.61759 126.734 1.9505 126.377 1.50955C125.8 0.712454 125.087 0.621999 117.627 0.621999C113.138 0.576773 107.365 0.401512 104.784 0.220609C100.652 -0.135542 99.9836 -0.0903136 99.3214 0.576763L99.327 0.56548ZM86.9764 50.9298C92.9763 55.0114 97.7309 62.2475 98.0422 67.8385C98.2629 71.3435 97.5101 73.209 95.4668 74.2718C92.5348 75.7812 87.6443 74.4075 85.0236 71.2982C83.4218 69.3875 81.469 65.2606 80.4897 61.6256C79.7369 58.6973 79.4653 51.0202 80.0879 48.6233L80.3539 47.47L82.352 48.3123C83.4614 48.7985 85.55 49.9518 86.9708 50.9298H86.9764ZM46.8113 78.2178C50.5018 79.9476 54.5885 83.5431 55.8733 86.1605C57.6959 89.8859 56.8073 93.5718 53.9602 94.2785C51.0735 94.9908 46.0981 90.9487 43.3416 85.6687C42.0114 83.1417 40.4095 78.2121 40.3643 76.5275C40.3643 75.8604 43.6076 76.7027 46.8056 78.2121L46.8113 78.2178Z" fill="url(#paint0_linear_1_237)"/>
<defs>
<linearGradient id="paint0_linear_1_237" x1="63.5" y1="0" x2="63.5" y2="110" gradientUnits="userSpaceOnUse">
<stop stop-color="#A25AFF"/>
<stop offset="1" stop-color="#666666"/>
</linearGradient>
</defs>
</svg>
