<svg width="83" height="44" viewBox="0 0 83 44" fill="none" xmlns="http://www.w3.org/2000/svg">
<path d="M-42.687 6.87812L-43.8185 8.52731L-42.687 6.87812ZM-3.33659 41.6924L-3.37762 43.692L-3.33659 41.6924ZM61.957 13.5436C59.4227 18.8617 61.6794 25.2272 66.9974 27.7615C72.3155 30.2958 78.6811 28.0392 81.2154 22.7211C83.7497 17.4031 81.493 11.0375 76.1749 8.50319C70.8569 5.96889 64.4913 8.22556 61.957 13.5436ZM-110.617 9.95389L-110.1 11.8857C-101.5 9.58042 -87.801 6.65994 -74.71 5.39748C-68.163 4.7661 -61.8271 4.55547 -56.3853 5.0244C-50.8875 5.49817 -46.5599 6.64648 -43.8185 8.52731L-42.687 6.87812L-41.5556 5.22893C-45.1586 2.75698 -50.3251 1.53181 -56.0419 1.03917C-61.8148 0.541708 -68.4141 0.771763 -75.094 1.41595C-88.4568 2.70462 -102.379 5.6748 -111.135 8.0221L-110.617 9.95389ZM-42.687 6.87812L-43.8185 8.52731C-36.2195 13.7407 -30.9118 21.9551 -25.0135 29.47C-19.3009 36.7482 -12.9058 43.4965 -3.37762 43.692L-3.33659 41.6924L-3.29556 39.6929C-10.7711 39.5395 -16.1205 34.3216 -21.8669 27.0003C-27.4275 19.9158 -33.2931 10.8975 -41.5556 5.22893L-42.687 6.87812ZM-3.33659 41.6924L-3.37762 43.692C0.319392 43.7679 5.72726 42.7626 11.8893 41.1874C18.1098 39.5971 25.292 37.3735 32.6251 34.9009C47.2938 29.9547 62.6662 23.9782 72.3493 19.981L71.5862 18.1324L70.8231 16.2837C61.1998 20.2561 45.9123 26.1993 31.347 31.1105C24.0631 33.5666 16.9848 35.7561 10.8986 37.312C4.75388 38.8828 -0.191067 39.7566 -3.29556 39.6929L-3.33659 41.6924Z" fill="#A25AFF"/>
</svg>
