<svg width="13" height="9" viewBox="0 0 13 9" fill="none" xmlns="http://www.w3.org/2000/svg">
<path d="M1.9045 0C1.30001 0.590273 0.820584 1.29168 0.493751 2.06393C0.166917 2.83618 -0.000878414 3.66406 3.4581e-06 4.5C3.4581e-06 6.25672 0.728003 7.84795 1.9045 9L2.821 8.10255C2.33652 7.63058 1.9526 7.06909 1.6915 6.45066C1.4304 5.83224 1.29732 5.16919 1.3 4.5C1.3 3.09335 1.8785 1.814 2.821 0.897454L1.9045 0ZM11.0955 0L10.179 0.897454C10.6629 1.36985 11.0464 1.93142 11.3075 2.54975C11.5686 3.16808 11.702 3.83091 11.7 4.5C11.7 5.91301 11.1215 7.186 10.179 8.10255L11.0955 9C11.7 8.40973 12.1794 7.70832 12.5062 6.93607C12.8331 6.16382 13.0009 5.33594 13 4.5C13 2.74328 12.272 1.15205 11.0955 0ZM3.744 1.80127C3.38117 2.15514 3.09332 2.57572 2.897 3.03886C2.70068 3.50199 2.59974 3.99855 2.6 4.5C2.6 5.55021 3.0355 6.50495 3.744 7.19873L4.6605 6.30127C4.41913 6.06466 4.22774 5.78379 4.09725 5.47472C3.96676 5.16566 3.89973 4.83444 3.9 4.5C3.9 3.79349 4.1925 3.157 4.6605 2.69873L3.744 1.80127ZM9.256 1.80127L8.3395 2.69873C8.58087 2.93534 8.77226 3.21621 8.90275 3.52528C9.03324 3.83435 9.10027 4.16556 9.1 4.5C9.1 5.20651 8.8075 5.843 8.3395 6.30127L9.256 7.19873C9.61883 6.84486 9.90668 6.42428 10.103 5.96114C10.2993 5.49801 10.4003 5.00145 10.4 4.5C10.4 3.44979 9.9645 2.49505 9.256 1.80127ZM6.5 3.22702C6.15522 3.22702 5.82456 3.36113 5.58076 3.59986C5.33696 3.8386 5.2 4.16238 5.2 4.5C5.2 4.83762 5.33696 5.16141 5.58076 5.40014C5.82456 5.63887 6.15522 5.77298 6.5 5.77298C6.84478 5.77298 7.17544 5.63887 7.41924 5.40014C7.66303 5.16141 7.8 4.83762 7.8 4.5C7.8 4.16238 7.66303 3.8386 7.41924 3.59986C7.17544 3.36113 6.84478 3.22702 6.5 3.22702Z" fill="white"/>
</svg>
